<mxfile host="app.diagrams.net" modified="2025-09-02T00:00:00Z" agent="cfbfantasy-app" version="24.7.2" type="device"><diagram id="draft-real" name="Draft (Real)"><mxGraphModel dx="1392" dy="850" grid="1" gridSize="10" guides="1" tooltips="1" connect="1" arrows="1" fold="1" page="1" pageScale="1" pageWidth="1920" pageHeight="1080" math="0" shadow="0"><root><mxCell id="0"/><mxCell id="1" parent="0"/><mxCell id="timer" value="Queue / Timer (Appwrite Function)" style="rounded=1;fillColor=#FEE2E2;strokeColor=#DC2626;fontColor=#7F1D1D;" vertex="1" parent="1"><mxGeometry x="80" y="80" width="280" height="70" as="geometry"/></mxCell><mxCell id="engineR" value="Snake Engine (server)" style="rounded=1;fillColor=#DBEAFE;strokeColor=#2563EB;fontColor=#1E3A8A;" vertex="1" parent="1"><mxGeometry x="400" y="80" width="260" height="70" as="geometry"/></mxCell><mxCell id="poolR" value="Draft Pool (Appwrite)" style="rounded=1;fillColor=#DCFCE7;strokeColor=#16A34A;fontColor=#14532D;" vertex="1" parent="1"><mxGeometry x="700" y="80" width="240" height="70" as="geometry"/></mxCell><mxCell id="rtR" value="Realtime (Appwrite)" style="rounded=1;fillColor=#EDE9FE;strokeColor=#7C3AED;fontColor=#4C1D95;" vertex="1" parent="1"><mxGeometry x="980" y="80" width="240" height="70" as="geometry"/></mxCell><mxCell id="uiR" value="Draft UI (live room)" style="rounded=1;fillColor=#FEF9C3;strokeColor=#D97706;fontColor=#92400E;" vertex="1" parent="1"><mxGeometry x="1280" y="80" width="260" height="70" as="geometry"/></mxCell><mxCell id="persistR" value="Persist Picks" style="rounded=1;fillColor=#E0E7FF;strokeColor=#4338CA;fontColor=#1E3A8A;" vertex="1" parent="1"><mxGeometry x="980" y="180" width="240" height="70" as="geometry"/></mxCell><mxCell id="e1r" style="endArrow=block;endFill=1;strokeColor=#94A3B8;" edge="1" source="timer" target="engineR" parent="1"><mxGeometry relative="1" as="geometry"/></mxCell><mxCell id="e2r" style="endArrow=block;endFill=1;strokeColor=#94A3B8;" edge="1" source="engineR" target="poolR" parent="1"><mxGeometry relative="1" as="geometry"/></mxCell><mxCell id="e3r" style="endArrow=block;endFill=1;strokeColor=#94A3B8;" edge="1" source="engineR" target="rtR" parent="1"><mxGeometry relative="1" as="geometry"/></mxCell><mxCell id="e4r" style="endArrow=block;endFill=1;strokeColor=#94A3B8;" edge="1" source="rtR" target="uiR" parent="1"><mxGeometry relative="1" as="geometry"/></mxCell><mxCell id="e5r" style="endArrow=block;endFill=1;strokeColor=#94A3B8;" edge="1" source="uiR" target="persistR" parent="1"><mxGeometry relative="1" as="geometry"/></mxCell></root></mxGraphModel></diagram></mxfile>